<svg width="91" height="33" viewBox="0 0 91 33" fill="none" xmlns="http://www.w3.org/2000/svg">
<path d="M0 0H91L82.1758 15.95L91 33H0V15.95V0Z" fill="#B474F3"/>
<path d="M15.2262 24C14.8728 24 14.6962 23.8233 14.6962 23.47V11.64C14.6962 11.2867 14.8728 11.11 15.2262 11.11H20.0462C21.7062 11.11 22.9128 11.49 23.6662 12.25C24.4262 13.01 24.8062 14.22 24.8062 15.88V19.23C24.8062 20.89 24.4262 22.1 23.6662 22.86C22.9128 23.62 21.7062 24 20.0462 24H15.2262ZM15.7462 22.95H20.0462C20.9528 22.95 21.6762 22.83 22.2162 22.59C22.7628 22.35 23.1562 21.96 23.3962 21.42C23.6362 20.8733 23.7562 20.1433 23.7562 19.23V15.88C23.7562 14.9733 23.6362 14.25 23.3962 13.71C23.1562 13.1633 22.7628 12.77 22.2162 12.53C21.6762 12.2833 20.9528 12.16 20.0462 12.16H15.7462V22.95ZM28.3004 24C27.9471 24 27.7704 23.8233 27.7704 23.47V15.07C27.7704 14.7233 27.9471 14.55 28.3004 14.55C28.6471 14.55 28.8204 14.7233 28.8204 15.07V16.61C29.1671 15.9433 29.6671 15.4333 30.3204 15.08C30.9804 14.7267 31.7604 14.55 32.6604 14.55C33.0137 14.55 33.1904 14.7233 33.1904 15.07C33.1904 15.4233 33.0137 15.6 32.6604 15.6C31.4737 15.6 30.5537 15.87 29.9004 16.41C29.2471 16.9433 28.8871 17.7067 28.8204 18.7V23.47C28.8204 23.8233 28.6471 24 28.3004 24ZM35.1095 12.73C34.6495 12.73 34.4195 12.4933 34.4195 12.02V11.57C34.4195 11.11 34.6495 10.88 35.1095 10.88H35.5595C36.0061 10.88 36.2295 11.11 36.2295 11.57V12.02C36.2295 12.4933 36.0061 12.73 35.5595 12.73H35.1095ZM35.3395 24C34.9861 24 34.8095 23.8233 34.8095 23.47V15.07C34.8095 14.7233 34.9861 14.55 35.3395 14.55C35.6861 14.55 35.8595 14.7233 35.8595 15.07V23.47C35.8595 23.8233 35.6861 24 35.3395 24ZM39.6246 24C39.2713 24 39.0946 23.8233 39.0946 23.47V15.07C39.0946 14.7233 39.2713 14.55 39.6246 14.55C39.9713 14.55 40.1446 14.7233 40.1446 15.07V16.03C40.7779 15.0433 41.9246 14.55 43.5846 14.55H44.1446C45.3913 14.55 46.3013 14.84 46.8746 15.42C47.4546 15.9933 47.7446 16.9033 47.7446 18.15V23.47C47.7446 23.8233 47.5713 24 47.2246 24C46.8713 24 46.6946 23.8233 46.6946 23.47V18.15C46.6946 17.1967 46.5046 16.5333 46.1246 16.16C45.7513 15.7867 45.0913 15.6 44.1446 15.6H43.5846C42.5513 15.6 41.7379 15.7633 41.1446 16.09C40.5513 16.4167 40.2179 16.9267 40.1446 17.62V23.47C40.1446 23.8233 39.9713 24 39.6246 24ZM51.3316 24C50.9783 24 50.8016 23.8233 50.8016 23.47V10.65C50.8016 10.3033 50.9783 10.13 51.3316 10.13C51.6783 10.13 51.8516 10.3033 51.8516 10.65V18.96L56.9316 14.6C57.185 14.3733 57.4283 14.39 57.6616 14.65C57.8883 14.91 57.8716 15.1567 57.6116 15.39L53.9316 18.56L57.9316 23.1C58.165 23.36 58.1483 23.6067 57.8816 23.84C57.6283 24.0667 57.385 24.05 57.1516 23.79L53.1216 19.25L51.8516 20.34V23.47C51.8516 23.8233 51.6783 24 51.3316 24ZM61.942 23.98C61.122 23.98 60.4953 23.8067 60.062 23.46C59.6286 23.1067 59.3686 22.57 59.282 21.85C59.262 21.6767 59.2986 21.5433 59.392 21.45C59.4853 21.35 59.622 21.3 59.802 21.3C59.9686 21.3 60.092 21.3433 60.172 21.43C60.2586 21.5167 60.3153 21.6467 60.342 21.82C60.402 22.2333 60.552 22.5233 60.792 22.69C61.0386 22.85 61.422 22.93 61.942 22.93H65.222C65.842 22.93 66.2686 22.8133 66.502 22.58C66.7353 22.3467 66.852 21.92 66.852 21.3C66.852 20.6733 66.7353 20.2433 66.502 20.01C66.2686 19.7767 65.842 19.66 65.222 19.66H61.982C61.1153 19.66 60.4686 19.4533 60.042 19.04C59.622 18.62 59.412 17.9767 59.412 17.11C59.412 16.2233 59.622 15.5733 60.042 15.16C60.462 14.74 61.1086 14.53 61.982 14.53H65.122C66.6286 14.53 67.4653 15.1967 67.632 16.53C67.6586 16.7033 67.622 16.84 67.522 16.94C67.4286 17.0333 67.2953 17.08 67.122 17.08C66.9553 17.08 66.8286 17.0367 66.742 16.95C66.662 16.8633 66.6053 16.7367 66.572 16.57C66.5253 16.1967 66.3886 15.94 66.162 15.8C65.942 15.6533 65.5953 15.58 65.122 15.58H61.982C61.402 15.58 61.002 15.6867 60.782 15.9C60.5686 16.1133 60.462 16.5167 60.462 17.11C60.462 17.6767 60.572 18.07 60.792 18.29C61.012 18.5033 61.4086 18.61 61.982 18.61H65.222C66.142 18.61 66.8186 18.83 67.252 19.27C67.6853 19.7033 67.902 20.38 67.902 21.3C67.902 22.2133 67.6853 22.89 67.252 23.33C66.8186 23.7633 66.142 23.98 65.222 23.98H61.942Z" fill="white"/>
</svg>
