<svg width="91" height="33" viewBox="0 0 91 33" fill="none" xmlns="http://www.w3.org/2000/svg">
<path d="M0 0H91L82.1758 15.95L91 33H0V15.95V0Z" fill="#B474F3"/>
<path d="M25.4938 24C25.1404 24 24.9638 23.8233 24.9638 23.47V11.64C24.9638 11.2867 25.1404 11.11 25.4938 11.11C25.8404 11.11 26.0138 11.2867 26.0138 11.64V17.39L31.9538 11.3C32.1938 11.0533 32.4371 11.05 32.6838 11.29C32.9438 11.53 32.9504 11.78 32.7038 12.04L28.2238 16.63L33.4938 23.17C33.7138 23.4433 33.6904 23.69 33.4237 23.91C33.1504 24.13 32.9071 24.1067 32.6938 23.84L27.4938 17.39L26.0138 18.9V23.47C26.0138 23.8233 25.8404 24 25.4938 24ZM35.7794 12.73C35.3194 12.73 35.0894 12.4933 35.0894 12.02V11.57C35.0894 11.11 35.3194 10.88 35.7794 10.88H36.2294C36.676 10.88 36.8994 11.11 36.8994 11.57V12.02C36.8994 12.4933 36.676 12.73 36.2294 12.73H35.7794ZM36.0094 24C35.656 24 35.4794 23.8233 35.4794 23.47V15.07C35.4794 14.7233 35.656 14.55 36.0094 14.55C36.356 14.55 36.5294 14.7233 36.5294 15.07V23.47C36.5294 23.8233 36.356 24 36.0094 24ZM43.6245 24C42.3979 24 41.5012 23.7167 40.9345 23.15C40.3679 22.5833 40.0845 21.69 40.0845 20.47V15.6H38.8945C38.5412 15.6 38.3645 15.4233 38.3645 15.07C38.3645 14.7233 38.5412 14.55 38.8945 14.55H40.0845V12.4C40.0845 12.0467 40.2579 11.87 40.6045 11.87C40.9579 11.87 41.1345 12.0467 41.1345 12.4V14.55H43.6445C43.9912 14.55 44.1645 14.7233 44.1645 15.07C44.1645 15.4233 43.9912 15.6 43.6445 15.6H41.1345V20.47C41.1345 21.4033 41.3145 22.05 41.6745 22.41C42.0412 22.77 42.6912 22.95 43.6245 22.95C43.8179 22.95 43.9545 22.9933 44.0345 23.08C44.1212 23.1667 44.1645 23.2967 44.1645 23.47C44.1645 23.8233 43.9845 24 43.6245 24ZM45.3219 13.93C45.1152 13.93 44.9685 13.8567 44.8819 13.71C44.8019 13.5633 44.8052 13.39 44.8919 13.19L45.8319 11.17L46.7319 11.56L45.7919 13.58C45.7385 13.7 45.6752 13.79 45.6019 13.85C45.5352 13.9033 45.4419 13.93 45.3219 13.93ZM45.8319 11.89C45.4452 11.89 45.2519 11.6933 45.2519 11.3V10.92C45.2519 10.54 45.4452 10.35 45.8319 10.35H46.2019C46.5819 10.35 46.7719 10.54 46.7719 10.92V11.3C46.7719 11.6933 46.5819 11.89 46.2019 11.89H45.8319ZM51.6744 23.98C50.8544 23.98 50.2277 23.8067 49.7944 23.46C49.361 23.1067 49.101 22.57 49.0144 21.85C48.9944 21.6767 49.031 21.5433 49.1244 21.45C49.2177 21.35 49.3544 21.3 49.5344 21.3C49.701 21.3 49.8244 21.3433 49.9044 21.43C49.991 21.5167 50.0477 21.6467 50.0744 21.82C50.1344 22.2333 50.2844 22.5233 50.5244 22.69C50.771 22.85 51.1544 22.93 51.6744 22.93H54.9544C55.5744 22.93 56.001 22.8133 56.2344 22.58C56.4677 22.3467 56.5844 21.92 56.5844 21.3C56.5844 20.6733 56.4677 20.2433 56.2344 20.01C56.001 19.7767 55.5744 19.66 54.9544 19.66H51.7144C50.8477 19.66 50.201 19.4533 49.7744 19.04C49.3544 18.62 49.1444 17.9767 49.1444 17.11C49.1444 16.2233 49.3544 15.5733 49.7744 15.16C50.1944 14.74 50.841 14.53 51.7144 14.53H54.8544C56.361 14.53 57.1977 15.1967 57.3644 16.53C57.391 16.7033 57.3544 16.84 57.2544 16.94C57.161 17.0333 57.0277 17.08 56.8544 17.08C56.6877 17.08 56.561 17.0367 56.4744 16.95C56.3944 16.8633 56.3377 16.7367 56.3044 16.57C56.2577 16.1967 56.121 15.94 55.8944 15.8C55.6744 15.6533 55.3277 15.58 54.8544 15.58H51.7144C51.1344 15.58 50.7344 15.6867 50.5144 15.9C50.301 16.1133 50.1944 16.5167 50.1944 17.11C50.1944 17.6767 50.3044 18.07 50.5244 18.29C50.7444 18.5033 51.141 18.61 51.7144 18.61H54.9544C55.8744 18.61 56.551 18.83 56.9844 19.27C57.4177 19.7033 57.6344 20.38 57.6344 21.3C57.6344 22.2133 57.4177 22.89 56.9844 23.33C56.551 23.7633 55.8744 23.98 54.9544 23.98H51.6744Z" fill="white"/>
</svg>
