<svg width="91" height="33" viewBox="0 0 91 33" fill="none" xmlns="http://www.w3.org/2000/svg">
<path d="M0 0H91L82.1758 15.95L91 33H0V15.95V0Z" fill="#B474F3"/>
<path d="M11.9745 22.982C10.9005 22.982 10.1025 22.745 9.5805 22.271C9.0645 21.791 8.7885 21.038 8.7525 20.012C8.7465 19.868 8.7855 19.754 8.8695 19.67C8.9595 19.58 9.0765 19.535 9.2205 19.535C9.3645 19.535 9.4785 19.577 9.5625 19.661C9.6465 19.745 9.6945 19.859 9.7065 20.003C9.7305 20.759 9.9105 21.287 10.2465 21.587C10.5825 21.887 11.1585 22.037 11.9745 22.037H14.5665C15.4185 22.037 16.0095 21.872 16.3395 21.542C16.6755 21.206 16.8435 20.618 16.8435 19.778C16.8435 18.926 16.6755 18.335 16.3395 18.005C16.0095 17.669 15.4185 17.501 14.5665 17.501H12.1005C11.0445 17.501 10.2705 17.255 9.7785 16.763C9.2865 16.271 9.0405 15.5 9.0405 14.45C9.0405 13.4 9.2835 12.629 9.7695 12.137C10.2615 11.645 11.0325 11.399 12.0825 11.399H14.6025C15.6105 11.399 16.3575 11.624 16.8435 12.074C17.3355 12.524 17.5995 13.232 17.6355 14.198C17.6475 14.342 17.6085 14.459 17.5185 14.549C17.4345 14.633 17.3175 14.675 17.1675 14.675C17.0295 14.675 16.9185 14.633 16.8345 14.549C16.7505 14.465 16.7025 14.351 16.6905 14.207C16.6665 13.517 16.4985 13.034 16.1865 12.758C15.8745 12.482 15.3465 12.344 14.6025 12.344H12.0825C11.2965 12.344 10.7505 12.5 10.4445 12.812C10.1385 13.118 9.9855 13.664 9.9855 14.45C9.9855 15.236 10.1385 15.785 10.4445 16.097C10.7565 16.403 11.3085 16.556 12.1005 16.556H14.5665C15.6825 16.556 16.4985 16.817 17.0145 17.339C17.5305 17.855 17.7885 18.668 17.7885 19.778C17.7885 20.888 17.5305 21.701 17.0145 22.217C16.4985 22.727 15.6825 22.982 14.5665 22.982H11.9745ZM20.0445 25.466C19.8585 25.466 19.7235 25.406 19.6395 25.286C19.5615 25.172 19.5465 25.031 19.5945 24.863L23.2845 10.508C23.3385 10.262 23.4885 10.139 23.7345 10.139C23.9265 10.139 24.0615 10.196 24.1395 10.31C24.2235 10.418 24.2445 10.565 24.2025 10.751L20.5035 25.106C20.4495 25.346 20.2965 25.466 20.0445 25.466ZM33.7108 10.364C33.4888 10.178 33.4678 9.968 33.6478 9.734L35.1958 7.907C35.3878 7.667 35.5978 7.646 35.8258 7.844C36.0478 8.036 36.0688 8.249 35.8888 8.483L34.3408 10.31C34.1488 10.55 33.9388 10.568 33.7108 10.364ZM29.1568 22.955C28.8688 22.829 28.7818 22.619 28.8958 22.325L33.3598 11.768C33.4558 11.522 33.6328 11.399 33.8908 11.399H33.9448C34.1908 11.405 34.3648 11.528 34.4668 11.768L38.9308 22.325C39.0508 22.619 38.9668 22.829 38.6788 22.955C38.3848 23.075 38.1808 22.991 38.0668 22.703L36.8698 19.868H30.9748L29.7778 22.703C29.6578 22.991 29.4508 23.075 29.1568 22.955ZM31.3618 18.923H36.4738L33.9178 12.893L31.3618 18.923ZM42.7459 23C41.8939 23 41.2669 22.802 40.8649 22.406C40.4689 22.01 40.2709 21.389 40.2709 20.543V10.985C40.2709 10.673 40.4299 10.517 40.7479 10.517C41.0599 10.517 41.2159 10.673 41.2159 10.985V20.543C41.2159 21.125 41.3239 21.524 41.5399 21.74C41.7559 21.95 42.1549 22.055 42.7369 22.055C43.0609 22.055 43.2229 22.211 43.2229 22.523C43.2289 22.841 43.0699 23 42.7459 23ZM47.6636 23C46.5416 23 45.7196 22.739 45.1976 22.217C44.6756 21.695 44.4146 20.873 44.4146 19.751V17.717C44.4146 16.595 44.6726 15.776 45.1886 15.26C45.7106 14.738 46.5356 14.483 47.6636 14.495H49.1396C50.0216 14.495 50.6936 14.645 51.1556 14.945C51.6236 15.239 51.9026 15.704 51.9926 16.34C52.0106 16.502 51.9746 16.625 51.8846 16.709C51.8006 16.793 51.6806 16.835 51.5246 16.835C51.3806 16.835 51.2726 16.799 51.2006 16.727C51.1286 16.649 51.0746 16.538 51.0386 16.394C50.9726 16.046 50.7956 15.8 50.5076 15.656C50.2196 15.512 49.7636 15.44 49.1396 15.44H47.6636C46.8056 15.428 46.2056 15.59 45.8636 15.926C45.5276 16.256 45.3596 16.853 45.3596 17.717V19.751C45.3596 20.609 45.5276 21.209 45.8636 21.551C46.2056 21.887 46.8056 22.055 47.6636 22.055H49.1396C49.7636 22.055 50.2196 21.983 50.5076 21.839C50.7956 21.695 50.9726 21.446 51.0386 21.092C51.0746 20.948 51.1286 20.84 51.2006 20.768C51.2726 20.69 51.3806 20.651 51.5246 20.651C51.6806 20.651 51.8006 20.696 51.8846 20.786C51.9746 20.87 52.0106 20.99 51.9926 21.146C51.9026 21.782 51.6236 22.25 51.1556 22.55C50.6936 22.85 50.0216 23 49.1396 23H47.6636ZM57.4468 23C56.3248 23 55.5028 22.742 54.9808 22.226C54.4588 21.704 54.1978 20.885 54.1978 19.769V17.735C54.1978 16.601 54.4588 15.776 54.9808 15.26C55.5028 14.738 56.3248 14.483 57.4468 14.495H58.9228C60.0448 14.495 60.8638 14.756 61.3798 15.278C61.9018 15.794 62.1628 16.613 62.1628 17.735V19.751C62.1628 20.873 61.9018 21.695 61.3798 22.217C60.8638 22.739 60.0448 23 58.9228 23H57.4468ZM55.1428 19.769C55.1428 20.615 55.3108 21.209 55.6468 21.551C55.9888 21.887 56.5888 22.055 57.4468 22.055H58.9228C59.7808 22.055 60.3778 21.887 60.7138 21.551C61.0498 21.209 61.2178 20.609 61.2178 19.751V17.735C61.2178 16.877 61.0498 16.28 60.7138 15.944C60.3778 15.608 59.7808 15.44 58.9228 15.44H57.4468C56.8708 15.434 56.4148 15.503 56.0788 15.647C55.7428 15.791 55.5028 16.031 55.3588 16.367C55.2148 16.703 55.1428 17.159 55.1428 17.735V19.769ZM67.7925 23C66.6705 23 65.8485 22.742 65.3265 22.226C64.8045 21.704 64.5435 20.885 64.5435 19.769V17.735C64.5435 16.601 64.8045 15.776 65.3265 15.26C65.8485 14.738 66.6705 14.483 67.7925 14.495H69.2685C70.3905 14.495 71.2095 14.756 71.7255 15.278C72.2475 15.794 72.5085 16.613 72.5085 17.735V19.751C72.5085 20.873 72.2475 21.695 71.7255 22.217C71.2095 22.739 70.3905 23 69.2685 23H67.7925ZM65.4885 19.769C65.4885 20.615 65.6565 21.209 65.9925 21.551C66.3345 21.887 66.9345 22.055 67.7925 22.055H69.2685C70.1265 22.055 70.7235 21.887 71.0595 21.551C71.3955 21.209 71.5635 20.609 71.5635 19.751V17.735C71.5635 16.877 71.3955 16.28 71.0595 15.944C70.7235 15.608 70.1265 15.44 69.2685 15.44H67.7925C67.2165 15.434 66.7605 15.503 66.4245 15.647C66.0885 15.791 65.8485 16.031 65.7045 16.367C65.5605 16.703 65.4885 17.159 65.4885 17.735V19.769ZM77.6072 23C76.7552 23 76.1282 22.802 75.7262 22.406C75.3302 22.01 75.1322 21.389 75.1322 20.543V10.985C75.1322 10.673 75.2912 10.517 75.6092 10.517C75.9212 10.517 76.0772 10.673 76.0772 10.985V20.543C76.0772 21.125 76.1852 21.524 76.4012 21.74C76.6172 21.95 77.0162 22.055 77.5982 22.055C77.9222 22.055 78.0842 22.211 78.0842 22.523C78.0902 22.841 77.9312 23 77.6072 23Z" fill="white"/>
</svg>
