<svg width="91" height="33" viewBox="0 0 91 33" fill="none" xmlns="http://www.w3.org/2000/svg">
<path d="M0 0H91L82.1758 15.95L91 33H0V15.95V0Z" fill="#B474F3"/>
<path d="M20.2049 23C20.0009 23 19.8539 22.892 19.7639 22.676L15.0929 12.074C15.0149 11.9 15.0149 11.756 15.0929 11.642C15.1769 11.528 15.2909 11.456 15.4349 11.426C15.6809 11.366 15.8519 11.456 15.9479 11.696L20.4479 21.902H20.1149L24.5879 11.696C24.6839 11.456 24.8579 11.366 25.1099 11.426C25.2659 11.456 25.3799 11.528 25.4519 11.642C25.5239 11.756 25.5239 11.9 25.4519 12.074L20.7629 22.676C20.6729 22.892 20.5199 23 20.3039 23H20.2049ZM28.6704 23C27.5484 23 26.7264 22.742 26.2044 22.226C25.6824 21.704 25.4214 20.885 25.4214 19.769V17.735C25.4214 16.601 25.6824 15.776 26.2044 15.26C26.7264 14.738 27.5484 14.483 28.6704 14.495H30.1464C31.2684 14.495 32.0874 14.756 32.6034 15.278C33.1254 15.794 33.3864 16.613 33.3864 17.735V19.751C33.3864 20.873 33.1254 21.695 32.6034 22.217C32.0874 22.739 31.2684 23 30.1464 23H28.6704ZM26.3664 19.769C26.3664 20.615 26.5344 21.209 26.8704 21.551C27.2124 21.887 27.8124 22.055 28.6704 22.055H30.1464C31.0044 22.055 31.6014 21.887 31.9374 21.551C32.2734 21.209 32.4414 20.609 32.4414 19.751V17.735C32.4414 16.877 32.2734 16.28 31.9374 15.944C31.6014 15.608 31.0044 15.44 30.1464 15.44H28.6704C28.0944 15.434 27.6384 15.503 27.3024 15.647C26.9664 15.791 26.7264 16.031 26.5824 16.367C26.4384 16.703 26.3664 17.159 26.3664 17.735V19.769ZM39.0161 23C37.8941 23 37.0721 22.739 36.5501 22.217C36.0281 21.695 35.7671 20.873 35.7671 19.751V17.735C35.7671 16.613 36.0281 15.794 36.5501 15.278C37.0721 14.756 37.8941 14.495 39.0161 14.495H42.7871V10.985C42.7871 10.673 42.9461 10.517 43.2641 10.517C43.5761 10.517 43.7321 10.673 43.7321 10.985V22.523C43.7321 22.841 43.5761 23 43.2641 23C42.9461 23 42.7871 22.841 42.7871 22.523V21.749C42.5291 22.163 42.1511 22.475 41.6531 22.685C41.1551 22.895 40.5041 23 39.7001 23H39.0161ZM39.0161 22.055H39.7001C40.6361 22.055 41.3831 21.908 41.9411 21.614C42.5051 21.314 42.7871 20.867 42.7871 20.273V15.44H39.0161C38.1581 15.44 37.5581 15.611 37.2161 15.953C36.8801 16.289 36.7121 16.883 36.7121 17.735V19.751C36.7121 20.609 36.8801 21.209 37.2161 21.551C37.5581 21.887 38.1581 22.055 39.0161 22.055ZM46.9207 23C46.6027 23 46.4437 22.841 46.4437 22.523V10.985C46.4437 10.673 46.6027 10.517 46.9207 10.517C47.2327 10.517 47.3887 10.673 47.3887 10.985V18.464L51.9607 14.54C52.1887 14.336 52.4077 14.351 52.6177 14.585C52.8217 14.819 52.8067 15.041 52.5727 15.251L49.2607 18.104L52.8607 22.19C53.0707 22.424 53.0557 22.646 52.8157 22.856C52.5877 23.06 52.3687 23.045 52.1587 22.811L48.5317 18.725L47.3887 19.706V22.523C47.3887 22.841 47.2327 23 46.9207 23ZM57.086 23C56.15 23 55.463 22.784 55.025 22.352C54.593 21.914 54.377 21.227 54.377 20.291C54.377 19.355 54.596 18.668 55.034 18.23C55.472 17.792 56.156 17.573 57.086 17.573H61.181C61.169 16.781 60.989 16.229 60.641 15.917C60.299 15.599 59.714 15.44 58.886 15.44H57.842C57.08 15.44 56.522 15.521 56.168 15.683C55.814 15.845 55.595 16.121 55.511 16.511C55.469 16.661 55.412 16.772 55.34 16.844C55.274 16.91 55.166 16.943 55.016 16.943C54.86 16.943 54.737 16.901 54.647 16.817C54.563 16.727 54.533 16.607 54.557 16.457C54.635 15.773 54.944 15.275 55.484 14.963C56.03 14.651 56.816 14.495 57.842 14.495H58.886C60.008 14.495 60.827 14.756 61.343 15.278C61.865 15.794 62.126 16.613 62.126 17.735V22.523C62.126 22.841 61.97 23 61.658 23C61.34 23 61.181 22.841 61.181 22.523V21.632C60.605 22.544 59.576 23 58.094 23H57.086ZM57.086 22.055H58.094C58.676 22.055 59.186 21.992 59.624 21.866C60.068 21.734 60.425 21.524 60.695 21.236C60.965 20.948 61.127 20.564 61.181 20.084V18.518H57.086C56.42 18.518 55.958 18.647 55.7 18.905C55.448 19.157 55.322 19.619 55.322 20.291C55.322 20.957 55.448 21.419 55.7 21.677C55.958 21.929 56.42 22.055 57.086 22.055ZM66.6954 22.982C65.9574 22.982 65.3934 22.826 65.0034 22.514C64.6134 22.196 64.3794 21.713 64.3014 21.065C64.2834 20.909 64.3164 20.789 64.4004 20.705C64.4844 20.615 64.6074 20.57 64.7694 20.57C64.9194 20.57 65.0304 20.609 65.1024 20.687C65.1804 20.765 65.2314 20.882 65.2554 21.038C65.3094 21.41 65.4444 21.671 65.6604 21.821C65.8824 21.965 66.2274 22.037 66.6954 22.037H69.6474C70.2054 22.037 70.5894 21.932 70.7994 21.722C71.0094 21.512 71.1144 21.128 71.1144 20.57C71.1144 20.006 71.0094 19.619 70.7994 19.409C70.5894 19.199 70.2054 19.094 69.6474 19.094H66.7314C65.9514 19.094 65.3694 18.908 64.9854 18.536C64.6074 18.158 64.4184 17.579 64.4184 16.799C64.4184 16.001 64.6074 15.416 64.9854 15.044C65.3634 14.666 65.9454 14.477 66.7314 14.477H69.5574C70.9134 14.477 71.6664 15.077 71.8164 16.277C71.8404 16.433 71.8074 16.556 71.7174 16.646C71.6334 16.73 71.5134 16.772 71.3574 16.772C71.2074 16.772 71.0934 16.733 71.0154 16.655C70.9434 16.577 70.8924 16.463 70.8624 16.313C70.8204 15.977 70.6974 15.746 70.4934 15.62C70.2954 15.488 69.9834 15.422 69.5574 15.422H66.7314C66.2094 15.422 65.8494 15.518 65.6514 15.71C65.4594 15.902 65.3634 16.265 65.3634 16.799C65.3634 17.309 65.4624 17.663 65.6604 17.861C65.8584 18.053 66.2154 18.149 66.7314 18.149H69.6474C70.4754 18.149 71.0844 18.347 71.4744 18.743C71.8644 19.133 72.0594 19.742 72.0594 20.57C72.0594 21.392 71.8644 22.001 71.4744 22.397C71.0844 22.787 70.4754 22.982 69.6474 22.982H66.6954Z" fill="white"/>
</svg>
