<svg width="91" height="33" viewBox="0 0 91 33" fill="none" xmlns="http://www.w3.org/2000/svg">
<path d="M0 0H91L82.1758 15.95L91 33H0V15.95V0Z" fill="#B474F3"/>
<path d="M14.502 23C14.274 23 14.121 22.877 14.043 22.631L10.596 12.029C10.548 11.891 10.566 11.753 10.65 11.615C10.734 11.471 10.866 11.399 11.046 11.399C11.148 11.399 11.238 11.429 11.316 11.489C11.4 11.543 11.457 11.627 11.487 11.741L14.691 21.587H14.43L17.463 11.768C17.505 11.636 17.577 11.54 17.679 11.48C17.787 11.42 17.898 11.39 18.012 11.39C18.132 11.39 18.246 11.42 18.354 11.48C18.462 11.54 18.531 11.636 18.561 11.768L21.594 21.587H21.333L24.537 11.741C24.579 11.627 24.636 11.543 24.708 11.489C24.786 11.429 24.876 11.399 24.978 11.399C25.182 11.399 25.32 11.468 25.392 11.606C25.47 11.744 25.485 11.885 25.437 12.029L21.981 22.631C21.903 22.877 21.738 23 21.486 23H21.45C21.192 23 21.027 22.877 20.955 22.631L17.868 12.713H18.129L15.042 22.631C15 22.781 14.934 22.88 14.844 22.928C14.754 22.976 14.64 23 14.502 23ZM27.3758 23C27.0578 23 26.8988 22.841 26.8988 22.523V10.985C26.8988 10.673 27.0578 10.517 27.3758 10.517C27.6878 10.517 27.8438 10.673 27.8438 10.985V15.827C28.4138 14.939 29.4458 14.495 30.9398 14.495H31.4438C32.5658 14.495 33.3848 14.756 33.9008 15.278C34.4228 15.794 34.6838 16.613 34.6838 17.735V22.523C34.6838 22.841 34.5278 23 34.2158 23C33.8978 23 33.7388 22.841 33.7388 22.523V17.735C33.7388 16.877 33.5678 16.28 33.2258 15.944C32.8898 15.608 32.2958 15.44 31.4438 15.44H30.9398C30.0098 15.44 29.2778 15.587 28.7438 15.881C28.2098 16.175 27.9098 16.634 27.8438 17.258V22.523C27.8438 22.841 27.6878 23 27.3758 23ZM37.6551 12.857C37.2411 12.857 37.0341 12.644 37.0341 12.218V11.813C37.0341 11.399 37.2411 11.192 37.6551 11.192H38.0601C38.4621 11.192 38.6631 11.399 38.6631 11.813V12.218C38.6631 12.644 38.4621 12.857 38.0601 12.857H37.6551ZM37.8621 23C37.5441 23 37.3851 22.841 37.3851 22.523V14.963C37.3851 14.651 37.5441 14.495 37.8621 14.495C38.1741 14.495 38.3301 14.651 38.3301 14.963V22.523C38.3301 22.841 38.1741 23 37.8621 23ZM43.0548 22.982C42.3168 22.982 41.7528 22.826 41.3628 22.514C40.9728 22.196 40.7388 21.713 40.6608 21.065C40.6428 20.909 40.6758 20.789 40.7598 20.705C40.8438 20.615 40.9668 20.57 41.1288 20.57C41.2788 20.57 41.3898 20.609 41.4618 20.687C41.5398 20.765 41.5908 20.882 41.6148 21.038C41.6688 21.41 41.8038 21.671 42.0198 21.821C42.2418 21.965 42.5868 22.037 43.0548 22.037H46.0068C46.5648 22.037 46.9488 21.932 47.1588 21.722C47.3688 21.512 47.4738 21.128 47.4738 20.57C47.4738 20.006 47.3688 19.619 47.1588 19.409C46.9488 19.199 46.5648 19.094 46.0068 19.094H43.0908C42.3108 19.094 41.7288 18.908 41.3448 18.536C40.9668 18.158 40.7778 17.579 40.7778 16.799C40.7778 16.001 40.9668 15.416 41.3448 15.044C41.7228 14.666 42.3048 14.477 43.0908 14.477H45.9168C47.2728 14.477 48.0258 15.077 48.1758 16.277C48.1998 16.433 48.1668 16.556 48.0768 16.646C47.9928 16.73 47.8728 16.772 47.7168 16.772C47.5668 16.772 47.4528 16.733 47.3748 16.655C47.3028 16.577 47.2518 16.463 47.2218 16.313C47.1798 15.977 47.0568 15.746 46.8528 15.62C46.6548 15.488 46.3428 15.422 45.9168 15.422H43.0908C42.5688 15.422 42.2088 15.518 42.0108 15.71C41.8188 15.902 41.7228 16.265 41.7228 16.799C41.7228 17.309 41.8218 17.663 42.0198 17.861C42.2178 18.053 42.5748 18.149 43.0908 18.149H46.0068C46.8348 18.149 47.4438 18.347 47.8338 18.743C48.2238 19.133 48.4188 19.742 48.4188 20.57C48.4188 21.392 48.2238 22.001 47.8338 22.397C47.4438 22.787 46.8348 22.982 46.0068 22.982H43.0548ZM51.2235 23C50.9055 23 50.7465 22.841 50.7465 22.523V10.985C50.7465 10.673 50.9055 10.517 51.2235 10.517C51.5355 10.517 51.6915 10.673 51.6915 10.985V18.464L56.2635 14.54C56.4915 14.336 56.7105 14.351 56.9205 14.585C57.1245 14.819 57.1095 15.041 56.8755 15.251L53.5635 18.104L57.1635 22.19C57.3735 22.424 57.3585 22.646 57.1185 22.856C56.8905 23.06 56.6715 23.045 56.4615 22.811L52.8345 18.725L51.6915 19.706V22.523C51.6915 22.841 51.5355 23 51.2235 23ZM61.0018 26.6C60.2158 26.6 59.6338 26.411 59.2558 26.033C58.8838 25.655 58.6978 25.067 58.6978 24.269C58.6978 23.957 58.8538 23.801 59.1658 23.801C59.4838 23.801 59.6428 23.957 59.6428 24.269C59.6428 24.809 59.7388 25.175 59.9308 25.367C60.1228 25.559 60.4798 25.655 61.0018 25.655H64.1158C64.6438 25.655 65.0038 25.559 65.1958 25.367C65.3878 25.175 65.4838 24.809 65.4838 24.269V21.794C65.1418 22.244 64.7128 22.559 64.1968 22.739C63.6808 22.919 63.0778 23.009 62.3878 23.009H61.8838C60.7798 23.009 59.9728 22.754 59.4628 22.244C58.9528 21.734 58.6978 20.933 58.6978 19.841V14.954C58.6978 14.636 58.8538 14.477 59.1658 14.477C59.4838 14.477 59.6428 14.636 59.6428 14.954V19.841C59.6428 20.675 59.8048 21.254 60.1288 21.578C60.4588 21.902 61.0438 22.064 61.8838 22.064H62.3878C63.4378 22.064 64.2148 21.881 64.7188 21.515C65.2288 21.143 65.4838 20.585 65.4838 19.841V14.954C65.4838 14.636 65.6398 14.477 65.9518 14.477C66.2698 14.477 66.4288 14.636 66.4288 14.954V24.269C66.4288 25.067 66.2398 25.655 65.8618 26.033C65.4898 26.411 64.9078 26.6 64.1158 26.6H61.0018ZM71.1564 22.982C70.4184 22.982 69.8544 22.826 69.4644 22.514C69.0744 22.196 68.8404 21.713 68.7624 21.065C68.7444 20.909 68.7774 20.789 68.8614 20.705C68.9454 20.615 69.0684 20.57 69.2304 20.57C69.3804 20.57 69.4914 20.609 69.5634 20.687C69.6414 20.765 69.6924 20.882 69.7164 21.038C69.7704 21.41 69.9054 21.671 70.1214 21.821C70.3434 21.965 70.6884 22.037 71.1564 22.037H74.1084C74.6664 22.037 75.0504 21.932 75.2604 21.722C75.4704 21.512 75.5754 21.128 75.5754 20.57C75.5754 20.006 75.4704 19.619 75.2604 19.409C75.0504 19.199 74.6664 19.094 74.1084 19.094H71.1924C70.4124 19.094 69.8304 18.908 69.4464 18.536C69.0684 18.158 68.8794 17.579 68.8794 16.799C68.8794 16.001 69.0684 15.416 69.4464 15.044C69.8244 14.666 70.4064 14.477 71.1924 14.477H74.0184C75.3744 14.477 76.1274 15.077 76.2774 16.277C76.3014 16.433 76.2684 16.556 76.1784 16.646C76.0944 16.73 75.9744 16.772 75.8184 16.772C75.6684 16.772 75.5544 16.733 75.4764 16.655C75.4044 16.577 75.3534 16.463 75.3234 16.313C75.2814 15.977 75.1584 15.746 74.9544 15.62C74.7564 15.488 74.4444 15.422 74.0184 15.422H71.1924C70.6704 15.422 70.3104 15.518 70.1124 15.71C69.9204 15.902 69.8244 16.265 69.8244 16.799C69.8244 17.309 69.9234 17.663 70.1214 17.861C70.3194 18.053 70.6764 18.149 71.1924 18.149H74.1084C74.9364 18.149 75.5454 18.347 75.9354 18.743C76.3254 19.133 76.5204 19.742 76.5204 20.57C76.5204 21.392 76.3254 22.001 75.9354 22.397C75.5454 22.787 74.9364 22.982 74.1084 22.982H71.1564Z" fill="white"/>
</svg>
