<svg width="60" height="57" viewBox="0 0 60 57" fill="none" xmlns="http://www.w3.org/2000/svg">
<g filter="url(#filter0_d_19_661)">
<path d="M29 0L15 11V33H23.75V20.1667H34.25V33H43V11L29 0Z" fill="#FCF9F9"/>
</g>
<g filter="url(#filter1_d_19_661)">
<path d="M10.9425 43.1811H9.61435C9.57647 42.9633 9.50663 42.7704 9.40483 42.6023C9.30303 42.4318 9.17637 42.2874 9.02486 42.169C8.87334 42.0507 8.70052 41.9619 8.50639 41.9027C8.31463 41.8411 8.10748 41.8104 7.88494 41.8104C7.48958 41.8104 7.1392 41.9098 6.83381 42.1087C6.52841 42.3052 6.2893 42.594 6.11648 42.9751C5.94366 43.3539 5.85724 43.8168 5.85724 44.3636C5.85724 44.92 5.94366 45.3887 6.11648 45.7699C6.29167 46.1487 6.53078 46.4351 6.83381 46.6293C7.1392 46.821 7.4884 46.9169 7.88139 46.9169C8.0992 46.9169 8.30279 46.8885 8.49219 46.8317C8.68395 46.7725 8.85559 46.6861 9.0071 46.5724C9.16098 46.4588 9.29001 46.3191 9.39418 46.1534C9.50071 45.9877 9.5741 45.7983 9.61435 45.5852L10.9425 45.5923C10.8928 45.938 10.785 46.2623 10.6193 46.5653C10.456 46.8684 10.2417 47.1359 9.97656 47.3679C9.71141 47.5975 9.40128 47.7775 9.04616 47.9077C8.69105 48.0355 8.29688 48.0994 7.86364 48.0994C7.22443 48.0994 6.65388 47.9515 6.15199 47.6555C5.65009 47.3596 5.25473 46.9323 4.96591 46.3736C4.67708 45.8149 4.53267 45.1449 4.53267 44.3636C4.53267 43.58 4.67827 42.91 4.96946 42.3537C5.26065 41.795 5.6572 41.3677 6.15909 41.0717C6.66098 40.7758 7.22917 40.6278 7.86364 40.6278C8.26847 40.6278 8.64489 40.6847 8.9929 40.7983C9.34091 40.9119 9.65104 41.0788 9.9233 41.299C10.1955 41.5168 10.4193 41.7843 10.5945 42.1016C10.772 42.4164 10.888 42.7763 10.9425 43.1811ZM12.995 48H11.5888L14.1491 40.7273H15.7756L18.3395 48H16.9332L14.9908 42.2188H14.9339L12.995 48ZM13.0412 45.1484H16.8764V46.2067H13.0412V45.1484ZM19.2974 48V40.7273H22.0247C22.5834 40.7273 23.0521 40.8243 23.4309 41.0185C23.8121 41.2126 24.0997 41.4848 24.2939 41.8352C24.4904 42.1832 24.5886 42.5893 24.5886 43.0533C24.5886 43.5196 24.4892 43.9245 24.2903 44.2678C24.0938 44.6087 23.8038 44.8726 23.4203 45.0597C23.0368 45.2443 22.5656 45.3366 22.0069 45.3366H20.0645V44.2429H21.8294C22.1561 44.2429 22.4236 44.1979 22.6319 44.108C22.8403 44.0156 22.9941 43.8819 23.0936 43.7067C23.1954 43.5291 23.2463 43.3113 23.2463 43.0533C23.2463 42.7952 23.1954 42.575 23.0936 42.3928C22.9918 42.2081 22.8367 42.0684 22.6284 41.9737C22.42 41.8767 22.1513 41.8281 21.8223 41.8281H20.6149V48H19.2974ZM23.0545 44.7045L24.8549 48H23.3848L21.6163 44.7045H23.0545ZM28.2658 48H25.8013V40.7273H28.3155C29.0376 40.7273 29.6578 40.8729 30.1763 41.1641C30.6971 41.4529 31.0972 41.8684 31.3766 42.4105C31.656 42.9527 31.7956 43.6013 31.7956 44.3565C31.7956 45.1141 31.6548 45.7652 31.373 46.3097C31.0937 46.8542 30.69 47.272 30.1621 47.5632C29.6365 47.8544 29.0044 48 28.2658 48ZM27.1188 46.8601H28.2019C28.7085 46.8601 29.1311 46.7678 29.4696 46.5831C29.8082 46.3961 30.0627 46.1179 30.2331 45.7486C30.4036 45.3769 30.4888 44.9129 30.4888 44.3565C30.4888 43.8002 30.4036 43.3385 30.2331 42.9716C30.0627 42.6023 29.8105 42.3265 29.4767 42.1442C29.1453 41.9595 28.7334 41.8672 28.2409 41.8672H27.1188V46.8601ZM33.5907 48H32.1845L34.7449 40.7273H36.3713L38.9352 48H37.5289L35.5865 42.2188H35.5297L33.5907 48ZM33.6369 45.1484H37.4721V46.2067H33.6369V45.1484ZM39.8931 48V40.7273H42.6204C43.1791 40.7273 43.6478 40.8314 44.0266 41.0398C44.4078 41.2481 44.6954 41.5346 44.8896 41.8991C45.0861 42.2614 45.1843 42.6733 45.1843 43.1349C45.1843 43.6013 45.0861 44.0156 44.8896 44.3778C44.6931 44.7401 44.4031 45.0253 44.0195 45.2337C43.636 45.4396 43.1637 45.5426 42.6026 45.5426H40.7951V44.4595H42.4251C42.7518 44.4595 43.0193 44.4027 43.2276 44.2891C43.436 44.1754 43.5898 44.0192 43.6893 43.8203C43.7911 43.6214 43.842 43.393 43.842 43.1349C43.842 42.8769 43.7911 42.6496 43.6893 42.4531C43.5898 42.2566 43.4348 42.1039 43.2241 41.995C43.0157 41.8838 42.747 41.8281 42.418 41.8281H41.2106V48H39.8931ZM47.6461 40.7273V48H46.3287V40.7273H47.6461ZM55.5714 44.3636C55.5714 45.1473 55.4246 45.8184 55.131 46.3771C54.8398 46.9335 54.4421 47.3596 53.9379 47.6555C53.436 47.9515 52.8666 48.0994 52.2298 48.0994C51.5929 48.0994 51.0224 47.9515 50.5181 47.6555C50.0162 47.3572 49.6185 46.9299 49.3249 46.3736C49.0337 45.8149 48.8881 45.1449 48.8881 44.3636C48.8881 43.58 49.0337 42.91 49.3249 42.3537C49.6185 41.795 50.0162 41.3677 50.5181 41.0717C51.0224 40.7758 51.5929 40.6278 52.2298 40.6278C52.8666 40.6278 53.436 40.7758 53.9379 41.0717C54.4421 41.3677 54.8398 41.795 55.131 42.3537C55.4246 42.91 55.5714 43.58 55.5714 44.3636ZM54.2468 44.3636C54.2468 43.812 54.1604 43.3468 53.9876 42.968C53.8171 42.5869 53.5804 42.2992 53.2773 42.1051C52.9743 41.9086 52.6251 41.8104 52.2298 41.8104C51.8344 41.8104 51.4852 41.9086 51.1822 42.1051C50.8791 42.2992 50.6412 42.5869 50.4684 42.968C50.2979 43.3468 50.2127 43.812 50.2127 44.3636C50.2127 44.9152 50.2979 45.3816 50.4684 45.7628C50.6412 46.1416 50.8791 46.4292 51.1822 46.6257C51.4852 46.8198 51.8344 46.9169 52.2298 46.9169C52.6251 46.9169 52.9743 46.8198 53.2773 46.6257C53.5804 46.4292 53.8171 46.1416 53.9876 45.7628C54.1604 45.3816 54.2468 44.9152 54.2468 44.3636Z" fill="#FCF9F9"/>
</g>
<defs>
<filter id="filter0_d_19_661" x="11" y="0" width="36" height="41" filterUnits="userSpaceOnUse" color-interpolation-filters="sRGB">
<feFlood flood-opacity="0" result="BackgroundImageFix"/>
<feColorMatrix in="SourceAlpha" type="matrix" values="0 0 0 0 0 0 0 0 0 0 0 0 0 0 0 0 0 0 127 0" result="hardAlpha"/>
<feOffset dy="4"/>
<feGaussianBlur stdDeviation="2"/>
<feComposite in2="hardAlpha" operator="out"/>
<feColorMatrix type="matrix" values="0 0 0 0 0 0 0 0 0 0 0 0 0 0 0 0 0 0 0.25 0"/>
<feBlend mode="normal" in2="BackgroundImageFix" result="effect1_dropShadow_19_661"/>
<feBlend mode="normal" in="SourceGraphic" in2="effect1_dropShadow_19_661" result="shape"/>
</filter>
<filter id="filter1_d_19_661" x="0.532715" y="40.6279" width="59.0387" height="15.4716" filterUnits="userSpaceOnUse" color-interpolation-filters="sRGB">
<feFlood flood-opacity="0" result="BackgroundImageFix"/>
<feColorMatrix in="SourceAlpha" type="matrix" values="0 0 0 0 0 0 0 0 0 0 0 0 0 0 0 0 0 0 127 0" result="hardAlpha"/>
<feOffset dy="4"/>
<feGaussianBlur stdDeviation="2"/>
<feComposite in2="hardAlpha" operator="out"/>
<feColorMatrix type="matrix" values="0 0 0 0 0 0 0 0 0 0 0 0 0 0 0 0 0 0 0.25 0"/>
<feBlend mode="normal" in2="BackgroundImageFix" result="effect1_dropShadow_19_661"/>
<feBlend mode="normal" in="SourceGraphic" in2="effect1_dropShadow_19_661" result="shape"/>
</filter>
</defs>
</svg>
