<svg width="36" height="61" viewBox="0 0 36 61" fill="none" xmlns="http://www.w3.org/2000/svg">
<g filter="url(#filter0_d_19_680)">
<path d="M10.9426 47.181H9.61447C9.57659 46.9632 9.50675 46.7703 9.40495 46.6022C9.30315 46.4318 9.1765 46.2873 9.02498 46.169C8.87346 46.0506 8.70064 45.9618 8.50651 45.9026C8.31475 45.8411 8.1076 45.8103 7.88507 45.8103C7.48971 45.8103 7.13933 45.9097 6.83393 46.1086C6.52853 46.3051 6.28942 46.5939 6.1166 46.9751C5.94378 47.3539 5.85737 47.8167 5.85737 48.3636C5.85737 48.9199 5.94378 49.3887 6.1166 49.7698C6.29179 50.1486 6.5309 50.4351 6.83393 50.6292C7.13933 50.821 7.48852 50.9168 7.88151 50.9168C8.09932 50.9168 8.30292 50.8884 8.49231 50.8316C8.68407 50.7724 8.85571 50.686 9.00722 50.5724C9.16111 50.4587 9.29013 50.3191 9.3943 50.1533C9.50083 49.9876 9.57422 49.7982 9.61447 49.5852L10.9426 49.5923C10.8929 49.9379 10.7852 50.2622 10.6194 50.5653C10.4561 50.8683 10.2418 51.1358 9.97668 51.3678C9.71153 51.5975 9.4014 51.7774 9.04629 51.9076C8.69117 52.0355 8.297 52.0994 7.86376 52.0994C7.22455 52.0994 6.654 51.9514 6.15211 51.6555C5.65022 51.3596 5.25486 50.9322 4.96603 50.3735C4.67721 49.8148 4.53279 49.1448 4.53279 48.3636C4.53279 47.58 4.67839 46.91 4.96958 46.3536C5.26078 45.7949 5.65732 45.3676 6.15921 45.0717C6.66111 44.7757 7.22929 44.6278 7.86376 44.6278C8.26859 44.6278 8.64501 44.6846 8.99302 44.7982C9.34103 44.9119 9.65116 45.0788 9.92342 45.2989C10.1957 45.5167 10.4194 45.7843 10.5946 46.1015C10.7721 46.4164 10.8881 46.7762 10.9426 47.181ZM12.1491 51.9999V44.7272H13.4666V47.806H16.8366V44.7272H18.1576V51.9999H16.8366V48.9105H13.4666V51.9999H12.1491ZM20.5244 51.9999H19.1182L21.6786 44.7272H23.305L25.8689 51.9999H24.4627L22.5202 46.2187H22.4634L20.5244 51.9999ZM20.5706 49.1484H24.4058V50.2066H20.5706V49.1484ZM25.6283 45.8316V44.7272H31.4309V45.8316H29.183V51.9999H27.8762V45.8316H25.6283Z" fill="#FCF9F9"/>
</g>
<path d="M15.652 0.148281C9.95233 0.973232 4.55264 5.023 2.15278 10.2977C0.102902 14.7474 0.152899 20.8971 2.25278 25.5218L2.90274 26.9217L1.40283 31.4465C0.552876 33.9463 -0.0470895 36.1212 0.00290762 36.3212C0.202896 36.7962 0.552876 36.7462 3.17772 35.8962C10.5023 33.5463 9.65235 33.6963 11.0523 34.3713C13.0272 35.3212 15.377 35.7712 18.4018 35.7462C23.5515 35.7212 27.3263 34.0963 30.9011 30.3965C32.776 28.4716 34.1009 26.1968 35.0759 23.2969C35.7008 21.472 35.7758 20.9221 35.7758 17.7723C35.7758 14.5974 35.7008 14.0725 35.0759 12.1726C34.3759 10.1227 33.526 8.3728 32.701 7.32286C30.8261 4.923 28.1013 2.72313 25.6514 1.59819C22.8516 0.298271 18.7018 -0.301693 15.652 0.148281ZM20.6517 4.24804C23.9265 4.948 26.0014 6.04794 28.2763 8.27281C31.4261 11.3476 32.551 14.6974 32.101 19.6221C31.9761 21.2221 30.9261 24.4469 30.4261 24.8968C30.3261 24.9718 29.8012 25.6718 29.2012 26.4468C26.8763 29.5966 22.2516 31.8964 18.3018 31.8964C16.5769 31.8964 13.6771 31.1465 11.9272 30.2465L10.3023 29.4216L9.05238 29.8216C8.35242 30.0215 7.27748 30.3715 6.67752 30.5715C6.07755 30.7465 5.55259 30.8715 5.52759 30.8465C5.47759 30.7965 5.77757 29.7466 6.20255 28.5216C6.70252 26.9967 6.87751 26.1468 6.70252 25.8968C4.85263 22.847 4.30266 21.0221 4.30266 17.6473C4.30266 15.7724 4.42765 14.6724 4.75263 13.7725C6.15255 9.82272 9.45236 6.37292 13.1771 4.998C16.077 3.92306 18.1769 3.72307 20.6517 4.24804Z" fill="#FCF9F9"/>
<path d="M10.8523 9.57277C9.75232 10.7727 9.40234 11.7476 9.40234 13.6475C9.40234 15.6474 9.97731 17.1473 11.7522 19.7472C12.7022 21.1221 14.877 23.472 16.077 24.4219C16.7519 24.9719 19.4268 26.2218 21.0267 26.7718C23.0016 27.4467 25.2264 27.0218 26.5763 25.7468C26.9763 25.3468 27.6513 23.447 27.6513 22.647C27.6513 22.272 27.4263 21.872 27.1013 21.6721C25.8514 20.8971 23.3015 19.6472 22.9766 19.6472C22.7766 19.6472 22.1516 20.1472 21.5766 20.7721L20.5267 21.897L19.4018 21.3471C18.1768 20.7471 15.052 17.7723 14.802 16.9473C14.677 16.5974 14.852 16.0974 15.302 15.4224C15.877 14.5475 15.927 14.2475 15.802 13.2725C15.702 12.6726 15.527 12.0976 15.377 12.0226C15.252 11.9226 15.152 11.6976 15.152 11.4727C15.152 10.9977 14.3771 9.32278 14.0521 9.09779C13.9021 8.9978 13.2521 8.8978 12.6272 8.8978C11.7022 8.8978 11.3772 9.0228 10.8523 9.57277Z" fill="#FCF9F9"/>
<defs>
<filter id="filter0_d_19_680" x="0.532837" y="44.6278" width="34.8981" height="15.4716" filterUnits="userSpaceOnUse" color-interpolation-filters="sRGB">
<feFlood flood-opacity="0" result="BackgroundImageFix"/>
<feColorMatrix in="SourceAlpha" type="matrix" values="0 0 0 0 0 0 0 0 0 0 0 0 0 0 0 0 0 0 127 0" result="hardAlpha"/>
<feOffset dy="4"/>
<feGaussianBlur stdDeviation="2"/>
<feComposite in2="hardAlpha" operator="out"/>
<feColorMatrix type="matrix" values="0 0 0 0 0 0 0 0 0 0 0 0 0 0 0 0 0 0 0.25 0"/>
<feBlend mode="normal" in2="BackgroundImageFix" result="effect1_dropShadow_19_680"/>
<feBlend mode="normal" in="SourceGraphic" in2="effect1_dropShadow_19_680" result="shape"/>
</filter>
</defs>
</svg>
