<svg width="61" height="57" viewBox="0 0 61 57" fill="none" xmlns="http://www.w3.org/2000/svg">
<g filter="url(#filter0_d_19_593)">
<path d="M30.2171 0.0202179C27.9169 0.246132 26.2465 0.663731 24.4323 1.4647C18.7913 3.96346 14.9371 9.11842 14.0882 15.314C13.9718 16.156 13.9718 18.8533 14.0813 19.6611C14.6564 23.707 16.3199 27.0958 19.0925 29.882C22.2485 33.0448 26.356 34.8316 30.8538 35.0096C36.5427 35.2287 42.0263 32.6204 45.4766 28.0473C50.7274 21.0919 50.0428 11.2817 43.8678 5.12041C41.1363 2.40259 37.8297 0.74588 33.9481 0.150288C33.2635 0.0475998 30.8059 -0.0413971 30.2171 0.0202179ZM33.5374 2.82703C38.3843 3.50478 42.5671 6.53067 44.7578 10.9394C45.8052 13.0343 46.2844 15.1017 46.2844 17.5047C46.2844 19.9213 45.8258 21.9066 44.7646 24.0425C43.2859 27.0273 40.9926 29.3207 38.0214 30.7857C35.8718 31.8468 33.907 32.3055 31.4836 32.2986C29.0601 32.2986 27.1022 31.8468 24.9458 30.7857C20.5096 28.6087 17.5385 24.4943 16.7991 19.5242C16.6417 18.4973 16.6417 16.5599 16.7923 15.4988C17.7918 8.44752 23.5903 3.10772 30.6963 2.69696C31.3467 2.65589 32.8185 2.72435 33.5374 2.82703Z" fill="#FCF9F9"/>
<path d="M30.0117 7.45483C29.8337 7.61229 29.8337 7.62598 29.8269 8.59125L29.8201 9.56337L29.5394 9.63867C28.266 9.96043 27.2871 10.5149 26.6572 11.268C25.9727 12.0895 25.5961 13.0548 25.5482 14.1159C25.4866 15.4166 25.8563 16.464 26.6846 17.2992C27.4719 18.0934 28.6699 18.5863 31.3535 19.2161C32.798 19.5584 33.421 19.7911 33.7222 20.1197C33.9413 20.3525 34.085 20.7427 34.085 21.0919C34.085 22.0024 33.4142 22.4816 32.0655 22.55C30.5115 22.6253 29.4504 22.1393 28.7452 21.0234L28.4714 20.5853H26.6983C24.713 20.5853 24.7267 20.5853 24.7883 21.0508C24.8089 21.1877 24.9252 21.5437 25.0485 21.8381C25.6509 23.2826 26.8079 24.4327 28.2181 24.9872C28.4166 25.0625 28.8548 25.1926 29.1902 25.2747L29.8064 25.4253L29.8132 26.3974C29.8269 27.7735 29.7379 27.705 31.4768 27.705C32.4215 27.6982 32.8528 27.6776 32.9281 27.616C33.154 27.4449 33.1951 27.2395 33.1951 26.3084C33.1951 25.3979 33.1951 25.3774 33.3457 25.3774C33.9824 25.3774 35.8102 24.6038 36.4811 24.0493C37.6381 23.0909 38.1926 21.9065 38.1926 20.4073C38.1926 19.5105 38.1104 19.1134 37.7681 18.3946C37.5491 17.9359 37.3779 17.7031 36.9672 17.2924C36.1457 16.4709 35.3378 16.1491 32.3393 15.444C30.6963 15.0606 30.135 14.8552 29.8406 14.5198C29.2108 13.7941 29.5531 12.6577 30.4978 12.3428C31.5315 12.0074 32.8322 12.2059 33.6401 12.822C33.7701 12.9179 33.9961 13.1643 34.133 13.356C34.2767 13.5477 34.4205 13.7257 34.4616 13.7531C34.4958 13.7804 35.2283 13.8078 36.0841 13.8078C37.4464 13.8078 37.6518 13.7941 37.7476 13.6914C37.9188 13.5271 37.8503 13.178 37.5148 12.4934C36.8166 11.0626 35.5706 10.0973 33.8797 9.6729L33.2293 9.5086L33.1951 8.5981C33.154 7.63282 33.1198 7.48221 32.9144 7.37268C32.8459 7.3316 32.2093 7.30422 31.4905 7.30422C30.2377 7.30422 30.1829 7.31107 30.0117 7.45483Z" fill="#FCF9F9"/>
<g filter="url(#filter1_d_19_593)">
<path d="M10.9425 43.181H9.61435C9.57647 42.9632 9.50663 42.7703 9.40483 42.6022C9.30303 42.4318 9.17637 42.2873 9.02486 42.169C8.87334 42.0506 8.70052 41.9618 8.50639 41.9026C8.31463 41.8411 8.10748 41.8103 7.88494 41.8103C7.48958 41.8103 7.1392 41.9097 6.83381 42.1086C6.52841 42.3051 6.2893 42.5939 6.11648 42.9751C5.94366 43.3539 5.85724 43.8167 5.85724 44.3636C5.85724 44.9199 5.94366 45.3887 6.11648 45.7698C6.29167 46.1486 6.53078 46.4351 6.83381 46.6292C7.1392 46.821 7.4884 46.9168 7.88139 46.9168C8.0992 46.9168 8.30279 46.8884 8.49219 46.8316C8.68395 46.7724 8.85559 46.686 9.0071 46.5724C9.16098 46.4587 9.29001 46.3191 9.39418 46.1533C9.50071 45.9876 9.5741 45.7982 9.61435 45.5852L10.9425 45.5923C10.8928 45.9379 10.785 46.2622 10.6193 46.5653C10.456 46.8683 10.2417 47.1358 9.97656 47.3678C9.71141 47.5975 9.40128 47.7774 9.04616 47.9076C8.69105 48.0355 8.29688 48.0994 7.86364 48.0994C7.22443 48.0994 6.65388 47.9514 6.15199 47.6555C5.65009 47.3596 5.25473 46.9322 4.96591 46.3735C4.67708 45.8148 4.53267 45.1448 4.53267 44.3636C4.53267 43.58 4.67827 42.91 4.96946 42.3536C5.26065 41.7949 5.6572 41.3676 6.15909 41.0717C6.66098 40.7757 7.22917 40.6278 7.86364 40.6278C8.26847 40.6278 8.64489 40.6846 8.9929 40.7982C9.34091 40.9119 9.65104 41.0788 9.9233 41.2989C10.1955 41.5167 10.4193 41.7843 10.5945 42.1015C10.772 42.4164 10.888 42.7762 10.9425 43.181ZM18.6475 44.3636C18.6475 45.1472 18.5008 45.8184 18.2072 46.3771C17.916 46.9334 17.5183 47.3596 17.014 47.6555C16.5121 47.9514 15.9428 48.0994 15.3059 48.0994C14.6691 48.0994 14.0985 47.9514 13.5943 47.6555C13.0924 47.3572 12.6947 46.9299 12.4011 46.3735C12.1099 45.8148 11.9643 45.1448 11.9643 44.3636C11.9643 43.58 12.1099 42.91 12.4011 42.3536C12.6947 41.7949 13.0924 41.3676 13.5943 41.0717C14.0985 40.7757 14.6691 40.6278 15.3059 40.6278C15.9428 40.6278 16.5121 40.7757 17.014 41.0717C17.5183 41.3676 17.916 41.7949 18.2072 42.3536C18.5008 42.91 18.6475 43.58 18.6475 44.3636ZM17.323 44.3636C17.323 43.812 17.2366 43.3468 17.0637 42.968C16.8933 42.5868 16.6565 42.2992 16.3535 42.1051C16.0505 41.9086 15.7013 41.8103 15.3059 41.8103C14.9106 41.8103 14.5614 41.9086 14.2583 42.1051C13.9553 42.2992 13.7174 42.5868 13.5446 42.968C13.3741 43.3468 13.2889 43.812 13.2889 44.3636C13.2889 44.9152 13.3741 45.3816 13.5446 45.7627C13.7174 46.1415 13.9553 46.4292 14.2583 46.6256C14.5614 46.8198 14.9106 46.9168 15.3059 46.9168C15.7013 46.9168 16.0505 46.8198 16.3535 46.6256C16.6565 46.4292 16.8933 46.1415 17.0637 45.7627C17.2366 45.3816 17.323 44.9152 17.323 44.3636ZM19.8931 40.7272H21.5053L23.6644 45.9971H23.7496L25.9087 40.7272H27.521V47.9999H26.2567V43.0035H26.1893L24.1793 47.9786H23.2347L21.2248 42.9928H21.1573V47.9999H19.8931V40.7272ZM29.8896 47.9999H28.4833L31.0437 40.7272H32.6701L35.234 47.9999H33.8278L31.8853 42.2187H31.8285L29.8896 47.9999ZM29.9357 45.1484H33.771V46.2066H29.9357V45.1484ZM42.1685 40.7272V47.9999H40.9966L37.5698 43.0461H37.5094V47.9999H36.1919V40.7272H37.3709L40.7942 45.6846H40.8581V40.7272H42.1685ZM46.0685 47.9999H43.604V40.7272H46.1183C46.8403 40.7272 47.4606 40.8728 47.979 41.164C48.4999 41.4528 48.9 41.8683 49.1793 42.4105C49.4587 42.9526 49.5984 43.6013 49.5984 44.3565C49.5984 45.114 49.4575 45.7651 49.1758 46.3096C48.8964 46.8541 48.4928 47.272 47.9648 47.5631C47.4393 47.8543 46.8072 47.9999 46.0685 47.9999ZM44.9215 46.86H46.0046C46.5112 46.86 46.9338 46.7677 47.2724 46.583C47.6109 46.396 47.8654 46.1178 48.0359 45.7485C48.2063 45.3768 48.2915 44.9128 48.2915 44.3565C48.2915 43.8001 48.2063 43.3385 48.0359 42.9715C47.8654 42.6022 47.6133 42.3264 47.2795 42.1441C46.948 41.9595 46.5361 41.8671 46.0437 41.8671H44.9215V46.86ZM51.3935 47.9999H49.9872L52.5476 40.7272H54.174L56.7379 47.9999H55.3317L53.3892 42.2187H53.3324L51.3935 47.9999ZM51.4396 45.1484H55.2749V46.2066H51.4396V45.1484Z" fill="#FCF9F9"/>
</g>
</g>
<defs>
<filter id="filter0_d_19_593" x="0.532654" y="-6.10352e-05" width="60.2053" height="56.0994" filterUnits="userSpaceOnUse" color-interpolation-filters="sRGB">
<feFlood flood-opacity="0" result="BackgroundImageFix"/>
<feColorMatrix in="SourceAlpha" type="matrix" values="0 0 0 0 0 0 0 0 0 0 0 0 0 0 0 0 0 0 127 0" result="hardAlpha"/>
<feOffset dy="4"/>
<feGaussianBlur stdDeviation="2"/>
<feComposite in2="hardAlpha" operator="out"/>
<feColorMatrix type="matrix" values="0 0 0 0 0 0 0 0 0 0 0 0 0 0 0 0 0 0 0.25 0"/>
<feBlend mode="normal" in2="BackgroundImageFix" result="effect1_dropShadow_19_593"/>
<feBlend mode="normal" in="SourceGraphic" in2="effect1_dropShadow_19_593" result="shape"/>
</filter>
<filter id="filter1_d_19_593" x="0.532654" y="40.6278" width="60.2053" height="15.4716" filterUnits="userSpaceOnUse" color-interpolation-filters="sRGB">
<feFlood flood-opacity="0" result="BackgroundImageFix"/>
<feColorMatrix in="SourceAlpha" type="matrix" values="0 0 0 0 0 0 0 0 0 0 0 0 0 0 0 0 0 0 127 0" result="hardAlpha"/>
<feOffset dy="4"/>
<feGaussianBlur stdDeviation="2"/>
<feComposite in2="hardAlpha" operator="out"/>
<feColorMatrix type="matrix" values="0 0 0 0 0 0 0 0 0 0 0 0 0 0 0 0 0 0 0.25 0"/>
<feBlend mode="normal" in2="BackgroundImageFix" result="effect1_dropShadow_19_593"/>
<feBlend mode="normal" in="SourceGraphic" in2="effect1_dropShadow_19_593" result="shape"/>
</filter>
</defs>
</svg>
