<svg width="71" height="57" viewBox="0 0 71 57" fill="none" xmlns="http://www.w3.org/2000/svg">
<g filter="url(#filter0_d_19_668)">
<path d="M43.5174 0.14818C41.8791 0.62055 40.8277 2.42667 41.0233 4.51065C41.1211 5.70547 41.2679 6.03891 42.1725 6.98365C43.1506 8.03954 43.2239 8.06732 44.6421 7.95618C45.8158 7.87282 46.2314 7.67831 46.8182 7.03922C48.7499 4.95524 48.2364 1.48193 45.8402 0.398259C44.8377 -0.0463247 44.3976 -0.101898 43.5174 0.14818Z" fill="#FCF9F9"/>
<path d="M22.051 0.252053C21.7831 0.36397 21.2473 0.867596 20.8577 1.34324C19.9079 2.49039 19.7131 4.70074 20.4437 6.04375C21.4665 7.91835 23.1469 8.47793 24.9247 7.5826C27.5305 6.26758 27.7253 2.23858 25.2656 0.531845C24.462 -0.0557175 22.9277 -0.167634 22.051 0.252053Z" fill="#FCF9F9"/>
<path d="M32.4118 0.550366C31.4429 1.33036 31.0216 2.3332 31.0005 3.89318C30.9584 6.846 33.3807 8.90741 35.2975 7.59814C37.4038 6.14958 37.5934 2.16606 35.6555 0.578223C34.7287 -0.173911 33.3175 -0.201768 32.4118 0.550366Z" fill="#FCF9F9"/>
<path d="M30.0675 15.734C30.135 22.2453 30.1576 22.4681 30.6527 23.2108C31.1254 23.9288 31.1479 24.1763 31.1479 28.4842C31.1479 32.5196 31.1929 33.089 31.5756 33.7823C32.4309 35.342 34.3666 35.4163 35.4244 33.9308C35.8296 33.3861 35.8746 32.9157 35.8746 28.7565C35.8746 24.3001 35.8971 24.1763 36.4373 23.2851L37 22.3691V15.6845V9H33.5113H30L30.0675 15.734Z" fill="#FCF9F9"/>
<path d="M40.0841 14.9171C40.1682 21.6286 40.1963 21.86 40.8131 22.6314C41.4019 23.3771 41.4299 23.6343 41.4299 27.9286C41.4299 32.7886 41.6542 33.7914 42.8598 34.5886C43.2243 34.82 44.0093 35 44.5981 35C45.4673 35 45.8879 34.82 46.6449 34.1257L47.5981 33.2514V28.4943C47.5981 23.8914 47.6262 23.7114 48.2991 22.6314C49 21.5 49 21.4743 49 14.7371V8H44.486H40L40.0841 14.9171Z" fill="#FCF9F9"/>
<path d="M19.0839 15.513C19.1677 21.7278 19.1957 22.1007 19.7826 23.0453C20.3696 23.9651 20.4255 24.4126 20.4814 28.6883L20.5652 33.3369L21.3758 34.0827C22.382 35.0273 23.4441 35.2262 24.7019 34.7539C26.3789 34.1324 26.5745 33.4861 26.5745 28.39C26.5745 24.1142 26.6025 23.8657 27.2174 23.1447C27.8043 22.399 27.8323 22.1752 27.9161 15.6871L28 9H23.5H19L19.0839 15.513Z" fill="#FCF9F9"/>
<g filter="url(#filter1_d_19_668)">
<path d="M4.71733 48V40.7273H9.37642V41.8317H6.0348V43.8061H9.05682V44.9105H6.0348V48H4.71733ZM11.8942 40.7273V48H10.5767V40.7273H11.8942ZM13.3208 48V40.7273H14.6383V46.8956H17.8414V48H13.3208ZM20.1923 48H18.786L21.3464 40.7273H22.9728L25.5368 48H24.1305L22.188 42.2188H22.1312L20.1923 48ZM20.2385 45.1484H24.0737V46.2067H20.2385V45.1484ZM31.4396 48H28.9751V40.7273H31.4893C32.2114 40.7273 32.8317 40.8729 33.3501 41.1641C33.871 41.4529 34.2711 41.8684 34.5504 42.4105C34.8298 42.9527 34.9695 43.6013 34.9695 44.3565C34.9695 45.1141 34.8286 45.7652 34.5469 46.3097C34.2675 46.8542 33.8639 47.272 33.3359 47.5632C32.8104 47.8544 32.1783 48 31.4396 48ZM30.2926 46.8601H31.3757C31.8823 46.8601 32.3049 46.7678 32.6435 46.5831C32.982 46.3961 33.2365 46.1179 33.407 45.7486C33.5774 45.3769 33.6626 44.9129 33.6626 44.3565C33.6626 43.8002 33.5774 43.3385 33.407 42.9716C33.2365 42.6023 32.9844 42.3265 32.6506 42.1442C32.3191 41.9595 31.9072 41.8672 31.4148 41.8672H30.2926V46.8601ZM37.5387 40.7273V48H36.2212V40.7273H37.5387ZM43.8375 43.0497C43.7784 42.858 43.6967 42.6863 43.5925 42.5348C43.4907 42.3809 43.3676 42.2495 43.2232 42.1406C43.0811 42.0317 42.9178 41.95 42.7331 41.8956C42.5485 41.8388 42.3472 41.8104 42.1294 41.8104C41.7388 41.8104 41.3908 41.9086 41.0854 42.1051C40.78 42.3016 40.5397 42.5904 40.3645 42.9716C40.1917 43.3504 40.1053 43.812 40.1053 44.3565C40.1053 44.9058 40.1917 45.371 40.3645 45.7521C40.5373 46.1333 40.7776 46.4233 41.0854 46.6222C41.3932 46.8187 41.7507 46.9169 42.1578 46.9169C42.5272 46.9169 42.8468 46.8459 43.1167 46.7038C43.3889 46.5618 43.5984 46.3606 43.7452 46.1001C43.892 45.8374 43.9654 45.5296 43.9654 45.1768L44.2637 45.223H42.2892V44.1932H45.2402V45.0668C45.2402 45.6894 45.1077 46.228 44.8425 46.6825C44.5774 47.1371 44.2128 47.4875 43.7488 47.7337C43.2847 47.9775 42.7521 48.0994 42.1507 48.0994C41.4808 48.0994 40.8925 47.9491 40.3858 47.6484C39.8816 47.3454 39.4874 46.9157 39.2033 46.3594C38.9216 45.8007 38.7807 45.1378 38.7807 44.3707C38.7807 43.7836 38.8636 43.2592 39.0293 42.7976C39.1974 42.3359 39.4318 41.9441 39.7324 41.6222C40.0331 41.2978 40.3858 41.0516 40.7907 40.8835C41.1955 40.7131 41.6358 40.6278 42.1117 40.6278C42.5141 40.6278 42.8894 40.687 43.2374 40.8054C43.5854 40.9214 43.8944 41.0871 44.1642 41.3026C44.4365 41.518 44.6602 41.7737 44.8354 42.0696C45.0106 42.3655 45.1254 42.6922 45.1799 43.0497H43.8375ZM47.8317 40.7273V48H46.5142V40.7273H47.8317ZM48.9387 41.8317V40.7273H54.7413V41.8317H52.4934V48H51.1866V41.8317H48.9387ZM55.915 48H54.5087L57.0691 40.7273H58.6955L61.2594 48H59.8532L57.9107 42.2188H57.8539L55.915 48ZM55.9611 45.1484H59.7963V46.2067H55.9611V45.1484ZM62.2173 48V40.7273H63.5348V46.8956H66.7379V48H62.2173Z" fill="#FCF9F9"/>
</g>
</g>
<defs>
<filter id="filter0_d_19_668" x="0.717285" y="0" width="70.0206" height="56.0994" filterUnits="userSpaceOnUse" color-interpolation-filters="sRGB">
<feFlood flood-opacity="0" result="BackgroundImageFix"/>
<feColorMatrix in="SourceAlpha" type="matrix" values="0 0 0 0 0 0 0 0 0 0 0 0 0 0 0 0 0 0 127 0" result="hardAlpha"/>
<feOffset dy="4"/>
<feGaussianBlur stdDeviation="2"/>
<feComposite in2="hardAlpha" operator="out"/>
<feColorMatrix type="matrix" values="0 0 0 0 0 0 0 0 0 0 0 0 0 0 0 0 0 0 0.25 0"/>
<feBlend mode="normal" in2="BackgroundImageFix" result="effect1_dropShadow_19_668"/>
<feBlend mode="normal" in="SourceGraphic" in2="effect1_dropShadow_19_668" result="shape"/>
</filter>
<filter id="filter1_d_19_668" x="0.717285" y="40.6279" width="70.0206" height="15.4716" filterUnits="userSpaceOnUse" color-interpolation-filters="sRGB">
<feFlood flood-opacity="0" result="BackgroundImageFix"/>
<feColorMatrix in="SourceAlpha" type="matrix" values="0 0 0 0 0 0 0 0 0 0 0 0 0 0 0 0 0 0 127 0" result="hardAlpha"/>
<feOffset dy="4"/>
<feGaussianBlur stdDeviation="2"/>
<feComposite in2="hardAlpha" operator="out"/>
<feColorMatrix type="matrix" values="0 0 0 0 0 0 0 0 0 0 0 0 0 0 0 0 0 0 0.25 0"/>
<feBlend mode="normal" in2="BackgroundImageFix" result="effect1_dropShadow_19_668"/>
<feBlend mode="normal" in="SourceGraphic" in2="effect1_dropShadow_19_668" result="shape"/>
</filter>
</defs>
</svg>
