<svg xmlns="http://www.w3.org/2000/svg" fill="none" viewBox="0 0 71 57"><g filter="url(#a)"><path fill="#FCF9F9" d="M43.517.148c-1.638.473-2.69 2.279-2.494 4.363.098 1.194.245 1.528 1.15 2.473.978 1.056 1.05 1.083 2.47.972 1.173-.083 1.588-.278 2.175-.917C48.75 4.955 48.236 1.482 45.84.4c-1.002-.445-1.442-.5-2.323-.25ZM22.051.252c-.268.112-.804.616-1.193 1.091-.95 1.147-1.145 3.358-.414 4.7 1.023 1.875 2.703 2.435 4.48 1.54 2.607-1.315 2.801-5.344.342-7.051-.804-.588-2.338-.7-3.215-.28ZM32.412.55c-.97.78-1.39 1.783-1.412 3.343-.042 2.953 2.38 5.014 4.297 3.705 2.107-1.448 2.296-5.432.359-7.02-.927-.752-2.338-.78-3.244-.028ZM30.067 15.734c.068 6.511.09 6.734.586 7.477.472.718.495.965.495 5.273 0 4.036.045 4.605.428 5.298.855 1.56 2.79 1.634 3.848.149.406-.545.45-1.015.45-5.174 0-4.457.023-4.58.563-5.472L37 22.37V9h-7l.067 6.734Z"/><path fill="#FCF9F9" d="M40.084 14.917c.084 6.712.112 6.943.73 7.714.588.746.616 1.003.616 5.298 0 4.86.224 5.862 1.43 6.66.364.231 1.15.411 1.738.411.87 0 1.29-.18 2.047-.874l.953-.875v-4.757c0-4.603.028-4.783.701-5.863C49 21.5 49 21.474 49 14.737V8h-9l.084 6.917ZM19.084 15.513c.084 6.215.112 6.588.699 7.532.587.92.642 1.368.698 5.643l.084 4.649.81.746c1.007.944 2.07 1.143 3.327.67 1.677-.62 1.872-1.267 1.872-6.363 0-4.276.028-4.524.643-5.245.587-.746.615-.97.7-7.458L28 9h-9l.084 6.513Z"/><g filter="url(#b)"><path fill="#FCF9F9" d="M4.717 48v-7.273h4.66v1.105H6.034v1.974h3.022v1.105H6.035V48H4.717Zm7.177-7.273V48h-1.317v-7.273h1.317ZM13.321 48v-7.273h1.317v6.169h3.203V48h-4.52Zm6.871 0h-1.406l2.56-7.273h1.627L25.537 48H24.13l-1.943-5.781h-.057L20.192 48Zm.046-2.852h3.836v1.059h-3.836v-1.059ZM31.44 48h-2.465v-7.273h2.514c.722 0 1.343.146 1.861.437.521.289.921.704 1.2 1.246.28.543.42 1.191.42 1.947 0 .757-.141 1.408-.423 1.953a2.92 2.92 0 0 1-1.211 1.253c-.526.291-1.158.437-1.896.437Zm-1.147-1.14h1.083c.506 0 .929-.092 1.268-.277.338-.187.593-.465.763-.834.17-.372.256-.836.256-1.393 0-.556-.086-1.017-.256-1.384a1.744 1.744 0 0 0-.756-.828c-.332-.184-.744-.277-1.236-.277h-1.122v4.993Zm7.246-6.133V48H36.22v-7.273h1.318Zm6.298 2.323a1.879 1.879 0 0 0-.245-.515 1.584 1.584 0 0 0-.369-.394 1.488 1.488 0 0 0-.49-.245 2.045 2.045 0 0 0-.604-.086c-.39 0-.738.099-1.044.295-.305.197-.545.485-.72.867-.173.378-.26.84-.26 1.384 0 .55.087 1.015.26 1.396.172.381.413.671.72.87a1.95 1.95 0 0 0 1.073.295c.37 0 .689-.071.959-.213.272-.142.481-.343.628-.604.147-.263.22-.57.22-.923l.299.046h-1.975v-1.03h2.951v.874c0 .622-.132 1.161-.398 1.615-.265.455-.63.805-1.093 1.052-.464.243-.997.365-1.598.365-.67 0-1.259-.15-1.765-.45a3.12 3.12 0 0 1-1.183-1.29c-.281-.558-.422-1.221-.422-1.988 0-.587.083-1.112.248-1.573.168-.462.403-.854.703-1.176.301-.324.654-.57 1.059-.739a3.37 3.37 0 0 1 1.32-.255c.403 0 .778.059 1.126.177.348.116.657.282.927.498a2.704 2.704 0 0 1 1.016 1.747h-1.343Zm3.995-2.323V48h-1.318v-7.273h1.318Zm1.107 1.105v-1.105h5.802v1.105h-2.248V48h-1.306v-6.168h-2.248ZM55.915 48h-1.406l2.56-7.273h1.627L61.259 48h-1.406l-1.942-5.781h-.057L55.915 48Zm.046-2.852h3.835v1.059h-3.835v-1.059ZM62.217 48v-7.273h1.318v6.169h3.203V48h-4.52Z"/></g></g><defs><filter id="a" width="70.021" height="56.099" x=".717" y="0" color-interpolation-filters="sRGB" filterUnits="userSpaceOnUse"><feFlood flood-opacity="0" result="BackgroundImageFix"/><feColorMatrix in="SourceAlpha" result="hardAlpha" values="0 0 0 0 0 0 0 0 0 0 0 0 0 0 0 0 0 0 127 0"/><feOffset dy="4"/><feGaussianBlur stdDeviation="2"/><feComposite in2="hardAlpha" operator="out"/><feColorMatrix values="0 0 0 0 0 0 0 0 0 0 0 0 0 0 0 0 0 0 0.25 0"/><feBlend in2="BackgroundImageFix" result="effect1_dropShadow_19_668"/><feBlend in="SourceGraphic" in2="effect1_dropShadow_19_668" result="shape"/></filter><filter id="b" width="70.021" height="15.472" x=".717" y="40.628" color-interpolation-filters="sRGB" filterUnits="userSpaceOnUse"><feFlood flood-opacity="0" result="BackgroundImageFix"/><feColorMatrix in="SourceAlpha" result="hardAlpha" values="0 0 0 0 0 0 0 0 0 0 0 0 0 0 0 0 0 0 127 0"/><feOffset dy="4"/><feGaussianBlur stdDeviation="2"/><feComposite in2="hardAlpha" operator="out"/><feColorMatrix values="0 0 0 0 0 0 0 0 0 0 0 0 0 0 0 0 0 0 0.25 0"/><feBlend in2="BackgroundImageFix" result="effect1_dropShadow_19_668"/><feBlend in="SourceGraphic" in2="effect1_dropShadow_19_668" result="shape"/></filter></defs></svg>