<svg width="41" height="56" viewBox="0 0 41 56" fill="none" xmlns="http://www.w3.org/2000/svg">
<g filter="url(#filter0_d_19_676)">
<path d="M4.72172 48.0002V40.7275H7.449C8.00771 40.7275 8.47646 40.8317 8.85525 41.04C9.2364 41.2483 9.52404 41.5348 9.71817 41.8994C9.91467 42.2616 10.0129 42.6735 10.0129 43.1352C10.0129 43.6016 9.91467 44.0159 9.71817 44.3781C9.52168 44.7403 9.23167 45.0256 8.84814 45.2339C8.46462 45.4399 7.99232 45.5429 7.43124 45.5429H5.62371V44.4598H7.25368C7.58039 44.4598 7.84791 44.4029 8.05624 44.2893C8.26457 44.1757 8.41846 44.0194 8.51789 43.8206C8.61969 43.6217 8.67059 43.3932 8.67059 43.1352C8.67059 42.8771 8.61969 42.6499 8.51789 42.4534C8.41846 42.2569 8.26339 42.1042 8.05269 41.9953C7.84436 41.884 7.57565 41.8284 7.24658 41.8284H6.0392V48.0002H4.72172ZM11.1573 48.0002V40.7275H15.8874V41.8319H12.4747V43.8064H15.6424V44.9108H12.4747V46.8958H15.9158V48.0002H11.1573ZM17.2315 48.0002V40.7275H19.9588C20.5175 40.7275 20.9862 40.8246 21.365 41.0187C21.7462 41.2128 22.0338 41.4851 22.2279 41.8355C22.4244 42.1835 22.5227 42.5895 22.5227 43.0535C22.5227 43.5199 22.4233 43.9247 22.2244 44.268C22.0279 44.6089 21.7379 44.8729 21.3544 45.0599C20.9708 45.2446 20.4997 45.3369 19.941 45.3369H17.9985V44.2431H19.7635C20.0902 44.2431 20.3577 44.1982 20.566 44.1082C20.7743 44.0159 20.9282 43.8821 21.0277 43.7069C21.1295 43.5294 21.1804 43.3116 21.1804 43.0535C21.1804 42.7955 21.1295 42.5753 21.0277 42.393C20.9259 42.2083 20.7708 42.0687 20.5625 41.974C20.3541 41.8769 20.0854 41.8284 19.7563 41.8284H18.549V48.0002H17.2315ZM20.9886 44.7048L22.789 48.0002H21.3188L19.5504 44.7048H20.9886ZM23.7354 48.0002V40.7275H28.3945V41.8319H25.0529V43.8064H28.0749V44.9108H25.0529V48.0002H23.7354ZM30.9122 40.7275V48.0002H29.5948V40.7275H30.9122ZM32.3389 48.0002V40.7275H33.6564V46.8958H36.8595V48.0002H32.3389Z" fill="#FCF9F9"/>
</g>
<g filter="url(#filter1_d_19_676)">
<path d="M20.5183 16.0254C24.5172 16.0254 27.9107 12.4845 27.9107 7.90321C27.9107 3.43142 24.4988 0 20.5183 0C16.5195 0 13.0893 3.48617 13.1077 7.93971C13.1077 12.4845 16.5012 16.0254 20.5183 16.0254ZM9.07219 33H31.9278C34.9544 33 36 32.0874 36 30.4082C36 25.7174 30.0201 19.2561 20.5 19.2561C10.9982 19.2561 5 25.7174 5 30.4082C5 32.0874 6.04556 33 9.07219 33Z" fill="white"/>
</g>
<defs>
<filter id="filter0_d_19_676" x="0.72168" y="40.7275" width="40.1378" height="15.2727" filterUnits="userSpaceOnUse" color-interpolation-filters="sRGB">
<feFlood flood-opacity="0" result="BackgroundImageFix"/>
<feColorMatrix in="SourceAlpha" type="matrix" values="0 0 0 0 0 0 0 0 0 0 0 0 0 0 0 0 0 0 127 0" result="hardAlpha"/>
<feOffset dy="4"/>
<feGaussianBlur stdDeviation="2"/>
<feComposite in2="hardAlpha" operator="out"/>
<feColorMatrix type="matrix" values="0 0 0 0 0 0 0 0 0 0 0 0 0 0 0 0 0 0 0.25 0"/>
<feBlend mode="normal" in2="BackgroundImageFix" result="effect1_dropShadow_19_676"/>
<feBlend mode="normal" in="SourceGraphic" in2="effect1_dropShadow_19_676" result="shape"/>
</filter>
<filter id="filter1_d_19_676" x="1" y="0" width="39" height="41" filterUnits="userSpaceOnUse" color-interpolation-filters="sRGB">
<feFlood flood-opacity="0" result="BackgroundImageFix"/>
<feColorMatrix in="SourceAlpha" type="matrix" values="0 0 0 0 0 0 0 0 0 0 0 0 0 0 0 0 0 0 127 0" result="hardAlpha"/>
<feOffset dy="4"/>
<feGaussianBlur stdDeviation="2"/>
<feComposite in2="hardAlpha" operator="out"/>
<feColorMatrix type="matrix" values="0 0 0 0 0 0 0 0 0 0 0 0 0 0 0 0 0 0 0.25 0"/>
<feBlend mode="normal" in2="BackgroundImageFix" result="effect1_dropShadow_19_676"/>
<feBlend mode="normal" in="SourceGraphic" in2="effect1_dropShadow_19_676" result="shape"/>
</filter>
</defs>
</svg>
